<svg xmlns="http://www.w3.org/2000/svg" xmlns:xlink="http://www.w3.org/1999/xlink" width="500" zoomAndPan="magnify" viewBox="0 0 375 374.999991" height="500" preserveAspectRatio="xMidYMid meet" version="1.0"><defs><clipPath id="a1a47b2593"><path d="M 116 206 L 164 206 L 164 253.554688 L 116 253.554688 Z M 116 206 " clip-rule="nonzero"/></clipPath><clipPath id="8eb571043a"><path d="M 245 206 L 293 206 L 293 253.554688 L 245 253.554688 Z M 245 206 " clip-rule="nonzero"/></clipPath><clipPath id="63b95c10a0"><path d="M 59 121.554688 L 225 121.554688 L 225 207 L 59 207 Z M 59 121.554688 " clip-rule="nonzero"/></clipPath></defs><path fill="#0c8b4e" d="M 101.933594 231.859375 C 101.933594 235.382812 104.507812 237.382812 110.945312 238.179688 L 110.945312 238.171875 C 110.863281 237.871094 110.789062 237.5625 110.710938 237.253906 C 110.707031 237.238281 110.707031 237.226562 110.699219 237.203125 C 110.628906 236.910156 110.566406 236.613281 110.507812 236.3125 C 110.5 236.265625 110.484375 236.214844 110.476562 236.167969 C 110.421875 235.871094 110.367188 235.5625 110.3125 235.261719 C 110.265625 234.964844 110.222656 234.675781 110.183594 234.375 C 110.167969 234.320312 110.167969 234.257812 110.15625 234.195312 C 110.128906 233.949219 110.09375 233.703125 110.074219 233.460938 C 110.058594 233.332031 110.046875 233.195312 110.03125 233.0625 C 110.011719 232.824219 109.992188 232.574219 109.976562 232.328125 C 109.96875 232.246094 109.964844 232.164062 109.957031 232.082031 C 109.941406 231.832031 109.929688 231.585938 109.921875 231.34375 C 109.921875 231.289062 109.921875 231.234375 109.921875 231.179688 C 109.910156 230.851562 109.902344 230.527344 109.902344 230.191406 C 109.902344 227.835938 110.164062 225.542969 110.664062 223.335938 C 110.710938 223.125 110.761719 222.910156 110.816406 222.699219 C 110.898438 222.359375 110.988281 222.039062 111.074219 221.714844 C 111.144531 221.46875 111.21875 221.234375 111.289062 220.996094 C 111.363281 220.753906 111.445312 220.511719 111.523438 220.273438 C 111.605469 220.039062 111.6875 219.800781 111.777344 219.558594 C 111.867188 219.324219 111.957031 219.089844 112.042969 218.859375 C 112.132812 218.625 112.230469 218.398438 112.328125 218.164062 C 112.328125 218.15625 112.328125 218.15625 112.332031 218.152344 C 112.429688 217.925781 112.527344 217.695312 112.628906 217.46875 C 112.730469 217.242188 112.839844 217.015625 112.945312 216.789062 C 113.046875 216.585938 113.152344 216.371094 113.261719 216.164062 C 113.378906 215.925781 113.5 215.691406 113.632812 215.464844 C 113.742188 215.25 113.859375 215.046875 113.976562 214.839844 C 113.980469 214.820312 113.996094 214.796875 114.007812 214.785156 C 114.125 214.585938 114.25 214.378906 114.367188 214.179688 C 114.484375 213.980469 114.605469 213.789062 114.730469 213.597656 C 114.757812 213.546875 114.785156 213.5 114.820312 213.460938 C 114.9375 213.28125 115.054688 213.109375 115.171875 212.929688 C 115.246094 212.8125 115.328125 212.703125 115.402344 212.59375 L 101.933594 212.59375 L 101.933594 231.859375 " fill-opacity="1" fill-rule="nonzero"/><path fill="#0c8b4e" d="M 242.078125 179.175781 L 242.078125 150.519531 C 251.972656 150.519531 261.628906 150.527344 271.292969 150.503906 C 272.035156 150.503906 272.5625 150.699219 273.042969 151.296875 C 280.457031 160.519531 287.886719 169.738281 295.507812 179.175781 Z M 253.5625 186.402344 C 251.058594 186.492188 248.542969 186.472656 246.035156 186.410156 C 245.019531 186.382812 244.257812 185.769531 244.257812 184.691406 C 244.265625 183.539062 244.972656 182.90625 246.152344 182.890625 C 247.375 182.886719 248.589844 182.890625 249.8125 182.890625 C 251.023438 182.890625 252.246094 182.871094 253.460938 182.90625 C 254.539062 182.925781 255.171875 183.503906 255.21875 184.589844 C 255.269531 185.707031 254.574219 186.367188 253.5625 186.402344 Z M 311.179688 222.53125 C 310.054688 222.003906 308.84375 221.785156 307.601562 221.707031 C 306 221.597656 304.351562 221.730469 302.792969 221.730469 C 302.792969 221.730469 302.78125 192.597656 302.800781 179.808594 C 302.800781 178 302.53125 176.375 301.34375 174.910156 C 293.492188 165.300781 285.664062 155.683594 277.867188 146.027344 C 276.355469 144.160156 274.492188 143.28125 272.136719 143.28125 C 269.09375 143.292969 266.050781 143.28125 263.003906 143.28125 L 230.355469 143.28125 L 230.355469 212.59375 L 164.425781 212.59375 C 164.648438 212.902344 164.859375 213.21875 165.066406 213.527344 C 165.167969 213.6875 165.273438 213.84375 165.367188 214.007812 C 166.082031 215.128906 166.714844 216.296875 167.269531 217.503906 C 167.351562 217.683594 167.429688 217.855469 167.503906 218.027344 C 167.546875 218.125 167.585938 218.21875 167.628906 218.320312 C 167.703125 218.492188 167.773438 218.660156 167.839844 218.832031 C 167.949219 219.113281 168.058594 219.394531 168.164062 219.675781 C 168.253906 219.910156 168.335938 220.140625 168.410156 220.371094 C 168.484375 220.582031 168.554688 220.796875 168.617188 221 L 168.699219 221.261719 C 168.824219 221.675781 168.933594 222.078125 169.042969 222.5 C 169.105469 222.738281 169.167969 222.984375 169.222656 223.226562 C 169.277344 223.460938 169.332031 223.699219 169.371094 223.941406 C 169.480469 224.46875 169.578125 225.011719 169.660156 225.554688 C 169.6875 225.742188 169.714844 225.925781 169.738281 226.113281 C 169.757812 226.253906 169.777344 226.414062 169.796875 226.566406 C 169.8125 226.710938 169.824219 226.851562 169.839844 227.003906 C 169.859375 227.203125 169.878906 227.402344 169.894531 227.601562 C 169.90625 227.726562 169.914062 227.84375 169.921875 227.972656 C 169.9375 228.136719 169.941406 228.296875 169.949219 228.460938 C 169.964844 228.699219 169.96875 228.933594 169.984375 229.183594 L 169.984375 229.265625 C 169.992188 229.511719 169.992188 229.757812 169.992188 230.007812 C 169.992188 230.328125 169.992188 230.644531 169.96875 230.960938 C 169.96875 231.078125 169.96875 231.195312 169.957031 231.296875 C 169.957031 231.503906 169.941406 231.710938 169.929688 231.914062 C 169.929688 232 169.921875 232.085938 169.914062 232.175781 C 169.902344 232.398438 169.878906 232.625 169.859375 232.84375 C 169.847656 232.925781 169.847656 233 169.832031 233.078125 C 169.820312 233.242188 169.804688 233.40625 169.785156 233.570312 C 169.769531 233.707031 169.75 233.851562 169.722656 233.988281 C 169.707031 234.113281 169.695312 234.238281 169.675781 234.359375 C 169.648438 234.558594 169.621094 234.765625 169.578125 234.964844 C 169.566406 235.089844 169.542969 235.207031 169.523438 235.324219 C 169.46875 235.617188 169.414062 235.914062 169.34375 236.207031 C 169.289062 236.46875 169.234375 236.738281 169.167969 237 C 169.140625 237.136719 169.105469 237.261719 169.070312 237.390625 C 169.007812 237.652344 168.933594 237.917969 168.863281 238.179688 L 240.3125 238.179688 C 237.457031 224.957031 240.824219 213.898438 251.785156 206.007812 C 261.59375 198.945312 272.472656 198.246094 282.96875 204.21875 C 296.132812 211.714844 300.253906 223.589844 297.339844 238.304688 C 300.835938 238.304688 304.269531 238.34375 307.683594 238.261719 C 312.355469 238.144531 315.921875 234.511719 315.914062 229.929688 C 315.90625 226.757812 314.050781 223.871094 311.179688 222.53125 " fill-opacity="1" fill-rule="nonzero"/><path fill="#0c8b4e" d="M 139.910156 221.453125 C 135.1875 221.453125 131.359375 225.289062 131.359375 230.007812 C 131.359375 234.730469 135.1875 238.558594 139.910156 238.558594 C 144.636719 238.558594 148.464844 234.730469 148.464844 230.007812 C 148.464844 225.289062 144.636719 221.453125 139.910156 221.453125 " fill-opacity="1" fill-rule="nonzero"/><g clip-path="url(#a1a47b2593)"><path fill="#0c8b4e" d="M 139.910156 245.625 C 131.296875 245.625 124.292969 238.621094 124.292969 230.007812 C 124.292969 221.394531 131.296875 214.386719 139.910156 214.386719 C 148.523438 214.386719 155.53125 221.394531 155.53125 230.007812 C 155.53125 238.621094 148.523438 245.625 139.910156 245.625 Z M 139.910156 206.605469 C 127.003906 206.605469 116.503906 217.105469 116.503906 230.007812 C 116.503906 242.914062 127.003906 253.414062 139.910156 253.414062 C 152.816406 253.414062 163.3125 242.914062 163.3125 230.007812 C 163.3125 217.105469 152.816406 206.605469 139.910156 206.605469 " fill-opacity="1" fill-rule="nonzero"/></g><g clip-path="url(#8eb571043a)"><path fill="#0c8b4e" d="M 268.839844 245.214844 C 260.46875 245.214844 253.648438 238.394531 253.648438 230.011719 C 253.648438 221.640625 260.46875 214.820312 268.839844 214.820312 C 277.222656 214.820312 284.042969 221.640625 284.042969 230.011719 C 284.042969 238.394531 277.222656 245.214844 268.839844 245.214844 Z M 268.839844 206.609375 C 255.933594 206.609375 245.4375 217.113281 245.4375 230.011719 C 245.4375 242.917969 255.933594 253.421875 268.839844 253.421875 C 281.746094 253.421875 292.25 242.917969 292.25 230.011719 C 292.25 217.113281 281.746094 206.609375 268.839844 206.609375 " fill-opacity="1" fill-rule="nonzero"/></g><path fill="#0c8b4e" d="M 268.839844 221.695312 C 264.246094 221.695312 260.523438 225.417969 260.523438 230.011719 C 260.523438 234.609375 264.246094 238.339844 268.839844 238.339844 C 273.4375 238.339844 277.164062 234.609375 277.164062 230.011719 C 277.164062 225.417969 273.4375 221.695312 268.839844 221.695312 " fill-opacity="1" fill-rule="nonzero"/><g clip-path="url(#63b95c10a0)"><path fill="#0c8b4e" d="M 188.640625 143.992188 C 204.175781 143.992188 216.824219 156.640625 216.824219 172.175781 C 216.824219 187.714844 204.175781 200.351562 188.640625 200.351562 C 173.101562 200.351562 160.464844 187.714844 160.464844 172.175781 C 160.464844 156.640625 173.101562 143.992188 188.640625 143.992188 Z M 101.933594 206.609375 L 121.027344 206.609375 C 126.195312 202.433594 132.769531 199.925781 139.910156 199.925781 C 147.054688 199.925781 153.628906 202.433594 158.789062 206.609375 L 224.371094 206.609375 C 224.371094 180.570312 224.371094 154.515625 224.371094 128.476562 C 224.371094 123.203125 222.710938 121.574219 217.289062 121.574219 C 195.660156 121.566406 174.023438 121.566406 152.386719 121.566406 C 137.292969 121.566406 122.203125 121.566406 107.113281 121.582031 L 107.042969 121.582031 C 104.199219 121.59375 101.933594 123.949219 101.933594 126.792969 L 101.933594 140.773438 L 103.390625 140.773438 C 117.167969 140.773438 130.953125 140.777344 144.742188 140.777344 C 149.273438 140.777344 153.8125 140.738281 158.347656 140.785156 C 161.128906 140.8125 162.53125 142.234375 162.605469 144.929688 C 162.714844 148.148438 161.238281 149.675781 157.878906 149.679688 C 144.101562 149.703125 130.316406 149.6875 116.53125 149.6875 C 99.171875 149.6875 81.808594 149.679688 64.457031 149.695312 C 60.769531 149.703125 59.105469 151.5 59.484375 155.011719 C 59.757812 157.582031 61.316406 158.660156 64.800781 158.660156 C 90.800781 158.664062 116.796875 158.660156 142.789062 158.660156 C 143.578125 158.660156 144.371094 158.605469 145.144531 158.695312 C 147.558594 158.976562 148.875 160.425781 148.984375 162.828125 C 149.144531 166.261719 147.53125 167.746094 143.546875 167.746094 C 120.691406 167.746094 97.832031 167.738281 74.972656 167.746094 C 71.492188 167.746094 70.0625 168.839844 69.882812 171.566406 C 69.636719 175.089844 71.121094 176.683594 74.765625 176.691406 C 92.476562 176.703125 110.183594 176.691406 127.890625 176.703125 C 131.195312 176.703125 132.664062 177.960938 132.78125 180.777344 C 132.933594 184.171875 131.511719 185.625 127.917969 185.625 C 113.78125 185.640625 99.652344 185.625 85.515625 185.640625 C 82.28125 185.640625 80.660156 186.964844 80.460938 189.644531 C 80.222656 192.859375 81.835938 194.652344 85.25 194.691406 C 89.515625 194.75 101.933594 194.714844 101.933594 194.714844 L 101.933594 206.609375 " fill-opacity="1" fill-rule="nonzero"/></g><path fill="#0c8b4e" d="M 178.070312 173.441406 C 178.171875 172.796875 178.523438 172.238281 179.058594 171.859375 C 179.460938 171.574219 179.949219 171.421875 180.4375 171.414062 C 180.597656 171.414062 180.734375 171.429688 180.855469 171.449219 C 181.503906 171.558594 182.066406 171.910156 182.445312 172.445312 L 186.449219 177.761719 L 194.738281 165.066406 C 195.171875 164.332031 195.96875 163.878906 196.820312 163.878906 C 197.261719 163.878906 197.6875 163.996094 198.0625 164.214844 C 198.621094 164.550781 199.019531 165.074219 199.183594 165.714844 C 199.335938 166.339844 199.246094 166.996094 198.910156 167.546875 L 189.609375 181.953125 C 189.332031 182.410156 188.769531 183.351562 187.566406 183.722656 C 187.390625 183.777344 187.046875 183.867188 186.628906 183.875 L 186.621094 183.875 C 185.945312 183.875 184.640625 183.628906 183.480469 181.984375 L 178.472656 175.246094 C 178.101562 174.71875 177.957031 174.074219 178.070312 173.441406 Z M 188.640625 193.042969 C 200.152344 193.042969 209.507812 183.675781 209.507812 172.175781 C 209.507812 160.664062 200.152344 151.308594 188.640625 151.308594 C 177.132812 151.308594 167.773438 160.664062 167.773438 172.175781 C 167.773438 183.675781 177.132812 193.042969 188.640625 193.042969 " fill-opacity="1" fill-rule="nonzero"/><path fill="#9d1f1f" d="M 187.5 375 C 83.910156 375 0 290.507812 0 187.5 C 0 84.492188 83.910156 0 187.5 0 C 291.089844 0 375 83.910156 375 187.5 C 375 291.089844 290.507812 375 187.5 375 Z M 187.5 11.574219 C 90.277344 11.574219 11.574219 90.277344 11.574219 187.5 C 11.574219 284.722656 90.277344 363.425781 187.5 363.425781 C 284.722656 363.425781 363.425781 284.722656 363.425781 187.5 C 363.425781 90.277344 284.144531 11.574219 187.5 11.574219 Z M 187.5 11.574219 " fill-opacity="1" fill-rule="nonzero"/></svg>