<svg xmlns="http://www.w3.org/2000/svg" xmlns:xlink="http://www.w3.org/1999/xlink" width="500" zoomAndPan="magnify" viewBox="0 0 375 374.999991" height="500" preserveAspectRatio="xMidYMid meet" version="1.0"><defs><clipPath id="0bd5116318"><path d="M 84 215 L 153 215 L 153 283.40625 L 84 283.40625 Z M 84 215 " clip-rule="nonzero"/></clipPath><clipPath id="d60506404b"><path d="M 271 215 L 341 215 L 341 283.40625 L 271 283.40625 Z M 271 215 " clip-rule="nonzero"/></clipPath><clipPath id="24586e93d4"><path d="M 0 91.40625 L 242 91.40625 L 242 216 L 0 216 Z M 0 91.40625 " clip-rule="nonzero"/></clipPath></defs><path fill="#0d5030" d="M 62.8125 252.152344 C 62.8125 257.289062 66.566406 260.199219 75.945312 261.363281 L 75.945312 261.351562 C 75.828125 260.910156 75.71875 260.460938 75.605469 260.011719 C 75.597656 259.992188 75.597656 259.96875 75.585938 259.941406 C 75.488281 259.511719 75.398438 259.078125 75.304688 258.640625 C 75.296875 258.570312 75.277344 258.5 75.265625 258.429688 C 75.1875 258 75.105469 257.546875 75.027344 257.109375 C 74.957031 256.675781 74.894531 256.257812 74.835938 255.816406 C 74.816406 255.738281 74.816406 255.644531 74.796875 255.554688 C 74.757812 255.195312 74.707031 254.835938 74.675781 254.484375 C 74.65625 254.296875 74.636719 254.09375 74.617188 253.90625 C 74.585938 253.554688 74.554688 253.195312 74.535156 252.832031 C 74.527344 252.714844 74.515625 252.59375 74.503906 252.472656 C 74.484375 252.113281 74.464844 251.753906 74.457031 251.402344 C 74.457031 251.320312 74.457031 251.242188 74.457031 251.160156 C 74.4375 250.679688 74.425781 250.210938 74.425781 249.71875 C 74.425781 246.289062 74.804688 242.945312 75.535156 239.730469 C 75.605469 239.421875 75.675781 239.109375 75.757812 238.800781 C 75.878906 238.308594 76.007812 237.839844 76.136719 237.367188 C 76.238281 237.007812 76.347656 236.667969 76.449219 236.316406 C 76.558594 235.96875 76.679688 235.617188 76.789062 235.265625 C 76.90625 234.925781 77.027344 234.574219 77.160156 234.226562 C 77.289062 233.886719 77.417969 233.542969 77.546875 233.203125 C 77.679688 232.863281 77.820312 232.535156 77.960938 232.195312 C 77.960938 232.183594 77.960938 232.183594 77.96875 232.171875 C 78.109375 231.84375 78.25 231.511719 78.398438 231.183594 C 78.550781 230.851562 78.710938 230.523438 78.859375 230.191406 C 79.011719 229.890625 79.160156 229.582031 79.320312 229.28125 C 79.492188 228.929688 79.671875 228.589844 79.859375 228.257812 C 80.019531 227.949219 80.191406 227.648438 80.363281 227.347656 C 80.371094 227.320312 80.390625 227.289062 80.410156 227.269531 C 80.582031 226.976562 80.761719 226.679688 80.933594 226.386719 C 81.101562 226.097656 81.28125 225.816406 81.460938 225.535156 C 81.503906 225.46875 81.542969 225.398438 81.59375 225.335938 C 81.761719 225.078125 81.933594 224.828125 82.101562 224.566406 C 82.214844 224.394531 82.332031 224.234375 82.445312 224.074219 L 62.8125 224.074219 L 62.8125 252.152344 " fill-opacity="1" fill-rule="nonzero"/><path fill="#0d5030" d="M 267.042969 175.378906 L 267.042969 133.617188 C 281.457031 133.617188 295.53125 133.628906 309.613281 133.597656 C 310.695312 133.597656 311.46875 133.878906 312.167969 134.75 C 322.96875 148.191406 333.796875 161.625 344.898438 175.378906 Z M 283.78125 185.910156 C 280.125 186.039062 276.460938 186.007812 272.808594 185.917969 C 271.328125 185.878906 270.214844 184.988281 270.214844 183.414062 C 270.226562 181.734375 271.257812 180.8125 272.980469 180.792969 C 274.761719 180.785156 276.53125 180.792969 278.316406 180.792969 C 280.078125 180.792969 281.859375 180.761719 283.628906 180.8125 C 285.203125 180.84375 286.121094 181.683594 286.191406 183.265625 C 286.261719 184.898438 285.25 185.859375 283.78125 185.910156 Z M 367.742188 238.558594 C 366.101562 237.789062 364.339844 237.46875 362.527344 237.359375 C 360.195312 237.199219 357.792969 237.386719 355.519531 237.386719 C 355.519531 237.386719 355.5 194.9375 355.53125 176.300781 C 355.53125 173.667969 355.140625 171.292969 353.40625 169.160156 C 341.964844 155.160156 330.554688 141.144531 319.195312 127.070312 C 316.992188 124.347656 314.28125 123.066406 310.847656 123.066406 C 306.410156 123.085938 301.976562 123.066406 297.535156 123.066406 L 249.957031 123.066406 L 249.957031 224.074219 L 153.882812 224.074219 C 154.203125 224.527344 154.515625 224.988281 154.8125 225.4375 C 154.964844 225.667969 155.113281 225.898438 155.253906 226.136719 C 156.296875 227.769531 157.214844 229.472656 158.027344 231.234375 C 158.148438 231.492188 158.257812 231.742188 158.367188 231.992188 C 158.425781 232.132812 158.488281 232.273438 158.546875 232.421875 C 158.65625 232.675781 158.757812 232.914062 158.859375 233.164062 C 159.019531 233.574219 159.179688 233.984375 159.328125 234.394531 C 159.457031 234.734375 159.578125 235.078125 159.6875 235.40625 C 159.800781 235.71875 159.898438 236.027344 159.988281 236.328125 L 160.109375 236.707031 C 160.289062 237.308594 160.449219 237.898438 160.609375 238.507812 C 160.699219 238.859375 160.789062 239.21875 160.871094 239.570312 C 160.949219 239.910156 161.03125 240.261719 161.089844 240.613281 C 161.25 241.382812 161.390625 242.171875 161.511719 242.964844 C 161.550781 243.234375 161.589844 243.503906 161.621094 243.773438 C 161.652344 243.984375 161.679688 244.214844 161.710938 244.433594 C 161.730469 244.644531 161.75 244.855469 161.769531 245.074219 C 161.800781 245.367188 161.832031 245.65625 161.851562 245.945312 C 161.871094 246.128906 161.882812 246.296875 161.890625 246.488281 C 161.910156 246.726562 161.921875 246.957031 161.929688 247.199219 C 161.949219 247.546875 161.960938 247.890625 161.980469 248.25 L 161.980469 248.371094 C 161.992188 248.730469 161.992188 249.089844 161.992188 249.449219 C 161.992188 249.921875 161.992188 250.382812 161.960938 250.839844 C 161.960938 251.011719 161.960938 251.183594 161.941406 251.332031 C 161.941406 251.632812 161.921875 251.933594 161.902344 252.234375 C 161.902344 252.351562 161.890625 252.484375 161.882812 252.613281 C 161.859375 252.933594 161.832031 253.265625 161.800781 253.585938 C 161.78125 253.703125 161.78125 253.816406 161.761719 253.925781 C 161.742188 254.164062 161.722656 254.40625 161.691406 254.644531 C 161.671875 254.84375 161.640625 255.054688 161.601562 255.257812 C 161.582031 255.4375 161.5625 255.617188 161.53125 255.796875 C 161.492188 256.085938 161.449219 256.386719 161.390625 256.675781 C 161.371094 256.859375 161.339844 257.027344 161.308594 257.199219 C 161.230469 257.628906 161.148438 258.058594 161.050781 258.488281 C 160.96875 258.871094 160.890625 259.261719 160.789062 259.640625 C 160.75 259.839844 160.699219 260.019531 160.648438 260.210938 C 160.558594 260.589844 160.449219 260.980469 160.347656 261.363281 L 264.472656 261.363281 C 260.308594 242.09375 265.210938 225.976562 281.1875 214.476562 C 295.480469 204.1875 311.335938 203.164062 326.632812 211.875 C 345.808594 222.792969 351.816406 240.101562 347.570312 261.542969 C 352.667969 261.542969 357.671875 261.601562 362.648438 261.480469 C 369.453125 261.3125 374.648438 256.015625 374.636719 249.339844 C 374.628906 244.714844 371.925781 240.511719 367.742188 238.558594 " fill-opacity="1" fill-rule="nonzero"/><path fill="#0d5030" d="M 118.160156 236.988281 C 111.273438 236.988281 105.695312 242.574219 105.695312 249.449219 C 105.695312 256.335938 111.273438 261.914062 118.160156 261.914062 C 125.046875 261.914062 130.621094 256.335938 130.621094 249.449219 C 130.621094 242.574219 125.046875 236.988281 118.160156 236.988281 " fill-opacity="1" fill-rule="nonzero"/><g clip-path="url(#0bd5116318)"><path fill="#0d5030" d="M 118.160156 272.210938 C 105.605469 272.210938 95.394531 262.003906 95.394531 249.449219 C 95.394531 236.898438 105.605469 226.6875 118.160156 226.6875 C 130.710938 226.6875 140.921875 236.898438 140.921875 249.449219 C 140.921875 262.003906 130.710938 272.210938 118.160156 272.210938 Z M 118.160156 215.347656 C 99.351562 215.347656 84.046875 230.652344 84.046875 249.449219 C 84.046875 268.257812 99.351562 283.5625 118.160156 283.5625 C 136.964844 283.5625 152.261719 268.257812 152.261719 249.449219 C 152.261719 230.652344 136.964844 215.347656 118.160156 215.347656 " fill-opacity="1" fill-rule="nonzero"/></g><g clip-path="url(#d60506404b)"><path fill="#0d5030" d="M 306.042969 271.613281 C 293.839844 271.613281 283.898438 261.671875 283.898438 249.460938 C 283.898438 237.257812 293.839844 227.320312 306.042969 227.320312 C 318.253906 227.320312 328.191406 237.257812 328.191406 249.460938 C 328.191406 261.671875 318.253906 271.613281 306.042969 271.613281 Z M 306.042969 215.355469 C 287.234375 215.355469 271.9375 230.660156 271.9375 249.460938 C 271.9375 268.269531 287.234375 283.574219 306.042969 283.574219 C 324.851562 283.574219 340.15625 268.269531 340.15625 249.460938 C 340.15625 230.660156 324.851562 215.355469 306.042969 215.355469 " fill-opacity="1" fill-rule="nonzero"/></g><path fill="#0d5030" d="M 306.042969 237.339844 C 299.34375 237.339844 293.917969 242.765625 293.917969 249.460938 C 293.917969 256.15625 299.34375 261.59375 306.042969 261.59375 C 312.738281 261.59375 318.171875 256.15625 318.171875 249.460938 C 318.171875 242.765625 312.738281 237.339844 306.042969 237.339844 " fill-opacity="1" fill-rule="nonzero"/><g clip-path="url(#24586e93d4)"><path fill="#0d5030" d="M 189.167969 124.109375 C 211.808594 124.109375 230.238281 142.535156 230.238281 165.179688 C 230.238281 187.820312 211.808594 206.238281 189.167969 206.238281 C 166.527344 206.238281 148.109375 187.820312 148.109375 165.179688 C 148.109375 142.535156 166.527344 124.109375 189.167969 124.109375 Z M 62.8125 215.355469 L 90.640625 215.355469 C 98.167969 209.269531 107.75 205.617188 118.160156 205.617188 C 128.570312 205.617188 138.148438 209.269531 145.664062 215.355469 L 241.238281 215.355469 C 241.238281 177.410156 241.238281 139.441406 241.238281 101.496094 C 241.238281 93.808594 238.816406 91.4375 230.917969 91.4375 C 199.398438 91.425781 167.867188 91.425781 136.335938 91.425781 C 114.34375 91.425781 92.351562 91.425781 70.363281 91.445312 L 70.261719 91.445312 C 66.117188 91.464844 62.8125 94.898438 62.8125 99.042969 L 62.8125 119.414062 L 64.9375 119.414062 C 85.015625 119.414062 105.105469 119.421875 125.195312 119.421875 C 131.800781 119.421875 138.417969 119.363281 145.023438 119.433594 C 149.078125 119.472656 151.121094 121.546875 151.230469 125.46875 C 151.390625 130.164062 149.238281 132.386719 144.34375 132.394531 C 124.265625 132.425781 104.175781 132.40625 84.085938 132.40625 C 58.789062 132.40625 33.484375 132.394531 8.199219 132.417969 C 2.824219 132.425781 0.402344 135.046875 0.953125 140.164062 C 1.355469 143.90625 3.625 145.480469 8.703125 145.480469 C 46.589844 145.488281 84.476562 145.480469 122.351562 145.480469 C 123.503906 145.480469 124.65625 145.398438 125.785156 145.527344 C 129.300781 145.9375 131.222656 148.050781 131.382812 151.554688 C 131.613281 156.558594 129.257812 158.722656 123.453125 158.722656 C 90.152344 158.722656 56.839844 158.710938 23.527344 158.722656 C 18.449219 158.722656 16.367188 160.3125 16.109375 164.289062 C 15.75 169.421875 17.910156 171.746094 23.226562 171.753906 C 49.03125 171.773438 74.835938 171.753906 100.640625 171.773438 C 105.457031 171.773438 107.597656 173.605469 107.769531 177.710938 C 107.988281 182.65625 105.917969 184.777344 100.679688 184.777344 C 80.082031 184.796875 59.492188 184.777344 38.890625 184.796875 C 34.175781 184.796875 31.8125 186.730469 31.523438 190.632812 C 31.171875 195.316406 33.527344 197.929688 38.5 197.988281 C 44.714844 198.070312 62.8125 198.019531 62.8125 198.019531 L 62.8125 215.355469 " fill-opacity="1" fill-rule="nonzero"/></g><path fill="#0d5030" d="M 173.761719 167.019531 C 173.914062 166.078125 174.421875 165.269531 175.203125 164.71875 C 175.792969 164.296875 176.503906 164.078125 177.214844 164.066406 C 177.445312 164.066406 177.644531 164.085938 177.828125 164.117188 C 178.765625 164.277344 179.589844 164.789062 180.140625 165.570312 L 185.972656 173.316406 L 198.054688 154.816406 C 198.6875 153.746094 199.847656 153.085938 201.089844 153.085938 C 201.730469 153.085938 202.351562 153.257812 202.902344 153.578125 C 203.710938 154.066406 204.292969 154.828125 204.53125 155.757812 C 204.753906 156.667969 204.621094 157.628906 204.132812 158.429688 L 190.578125 179.421875 C 190.179688 180.09375 189.359375 181.464844 187.605469 182.003906 C 187.347656 182.085938 186.84375 182.214844 186.234375 182.226562 L 186.226562 182.226562 C 185.242188 182.226562 183.34375 181.863281 181.648438 179.472656 L 174.351562 169.652344 C 173.8125 168.882812 173.601562 167.941406 173.761719 167.019531 Z M 189.167969 195.585938 C 205.945312 195.585938 219.578125 181.933594 219.578125 165.179688 C 219.578125 148.402344 205.945312 134.769531 189.167969 134.769531 C 172.402344 134.769531 158.757812 148.402344 158.757812 165.179688 C 158.757812 181.933594 172.402344 195.585938 189.167969 195.585938 " fill-opacity="1" fill-rule="nonzero"/></svg>