<svg xmlns="http://www.w3.org/2000/svg" xmlns:xlink="http://www.w3.org/1999/xlink" width="1408" zoomAndPan="magnify" viewBox="0 0 1056 310.499991" height="414" preserveAspectRatio="xMidYMid meet" version="1.0"><defs><g/><clipPath id="3acd96e1f1"><path d="M 0.847656 0 L 310.710938 0 L 310.710938 309.863281 L 0.847656 309.863281 Z M 0.847656 0 " clip-rule="nonzero"/></clipPath></defs><g clip-path="url(#3acd96e1f1)"><path fill="#7cb342" d="M 310.332031 154.742188 C 310.332031 157.273438 310.269531 159.804688 310.148438 162.335938 C 310.023438 164.863281 309.835938 167.390625 309.589844 169.910156 C 309.339844 172.429688 309.03125 174.941406 308.660156 177.449219 C 308.285156 179.953125 307.855469 182.445312 307.359375 184.929688 C 306.867188 187.414062 306.3125 189.886719 305.695312 192.339844 C 305.082031 194.796875 304.40625 197.238281 303.667969 199.660156 C 302.933594 202.085938 302.140625 204.488281 301.289062 206.875 C 300.433594 209.257812 299.523438 211.621094 298.554688 213.960938 C 297.585938 216.300781 296.558594 218.613281 295.476562 220.902344 C 294.394531 223.191406 293.253906 225.453125 292.0625 227.6875 C 290.867188 229.921875 289.621094 232.125 288.316406 234.296875 C 287.015625 236.46875 285.660156 238.605469 284.253906 240.710938 C 282.847656 242.816406 281.390625 244.886719 279.882812 246.921875 C 278.371094 248.957031 276.816406 250.953125 275.207031 252.910156 C 273.601562 254.867188 271.949219 256.785156 270.246094 258.660156 C 268.546875 260.535156 266.800781 262.371094 265.011719 264.160156 C 263.21875 265.953125 261.386719 267.699219 259.507812 269.398438 C 257.632812 271.097656 255.714844 272.753906 253.757812 274.359375 C 251.800781 275.964844 249.804688 277.523438 247.769531 279.03125 C 245.738281 280.539062 243.667969 282 241.5625 283.40625 C 239.457031 284.8125 237.316406 286.167969 235.144531 287.46875 C 232.972656 288.769531 230.769531 290.019531 228.535156 291.210938 C 226.300781 292.40625 224.042969 293.542969 221.75 294.628906 C 219.460938 295.710938 217.148438 296.734375 214.808594 297.707031 C 212.46875 298.675781 210.105469 299.585938 207.722656 300.4375 C 205.335938 301.292969 202.933594 302.085938 200.511719 302.820312 C 198.085938 303.554688 195.648438 304.230469 193.191406 304.847656 C 190.734375 305.460938 188.261719 306.015625 185.78125 306.511719 C 183.296875 307.003906 180.800781 307.4375 178.296875 307.808594 C 175.792969 308.179688 173.277344 308.492188 170.757812 308.738281 C 168.238281 308.988281 165.714844 309.171875 163.183594 309.296875 C 160.65625 309.421875 158.125 309.484375 155.589844 309.484375 C 153.058594 309.484375 150.527344 309.421875 148 309.296875 C 145.46875 309.171875 142.945312 308.988281 140.421875 308.738281 C 137.902344 308.492188 135.390625 308.179688 132.886719 307.808594 C 130.378906 307.4375 127.886719 307.003906 125.402344 306.511719 C 122.917969 306.015625 120.449219 305.460938 117.992188 304.847656 C 115.535156 304.230469 113.09375 303.554688 110.671875 302.820312 C 108.25 302.085938 105.84375 301.292969 103.460938 300.4375 C 101.074219 299.585938 98.714844 298.675781 96.375 297.707031 C 94.035156 296.734375 91.71875 295.710938 89.429688 294.628906 C 87.140625 293.542969 84.878906 292.40625 82.644531 291.210938 C 80.414062 290.019531 78.210938 288.769531 76.039062 287.46875 C 73.867188 286.167969 71.726562 284.8125 69.621094 283.40625 C 67.515625 282 65.445312 280.539062 63.410156 279.03125 C 61.378906 277.523438 59.382812 275.964844 57.421875 274.359375 C 55.464844 272.753906 53.550781 271.097656 51.671875 269.398438 C 49.796875 267.699219 47.960938 265.953125 46.171875 264.160156 C 44.382812 262.371094 42.636719 260.535156 40.933594 258.660156 C 39.234375 256.785156 37.582031 254.867188 35.972656 252.910156 C 34.367188 250.953125 32.808594 248.957031 31.300781 246.921875 C 29.792969 244.886719 28.335938 242.816406 26.925781 240.710938 C 25.519531 238.605469 24.167969 236.46875 22.863281 234.296875 C 21.5625 232.125 20.3125 229.921875 19.121094 227.6875 C 17.925781 225.453125 16.789062 223.191406 15.707031 220.902344 C 14.621094 218.613281 13.597656 216.300781 12.628906 213.960938 C 11.660156 211.621094 10.746094 209.257812 9.894531 206.875 C 9.042969 204.488281 8.246094 202.085938 7.511719 199.660156 C 6.777344 197.238281 6.101562 194.796875 5.484375 192.339844 C 4.871094 189.886719 4.316406 187.414062 3.820312 184.929688 C 3.328125 182.445312 2.894531 179.953125 2.523438 177.449219 C 2.152344 174.941406 1.84375 172.429688 1.59375 169.910156 C 1.347656 167.390625 1.160156 164.863281 1.035156 162.335938 C 0.910156 159.804688 0.847656 157.273438 0.847656 154.742188 C 0.847656 152.210938 0.910156 149.679688 1.035156 147.148438 C 1.160156 144.621094 1.347656 142.09375 1.59375 139.574219 C 1.84375 137.054688 2.152344 134.542969 2.523438 132.035156 C 2.894531 129.53125 3.328125 127.039062 3.820312 124.554688 C 4.316406 122.070312 4.871094 119.597656 5.484375 117.144531 C 6.101562 114.6875 6.777344 112.246094 7.511719 109.824219 C 8.246094 107.398438 9.042969 104.996094 9.894531 102.609375 C 10.746094 100.226562 11.660156 97.863281 12.628906 95.523438 C 13.597656 93.183594 14.621094 90.871094 15.707031 88.582031 C 16.789062 86.292969 17.925781 84.03125 19.121094 81.796875 C 20.3125 79.5625 21.5625 77.359375 22.863281 75.1875 C 24.167969 73.015625 25.519531 70.878906 26.925781 68.773438 C 28.335938 66.667969 29.792969 64.597656 31.300781 62.5625 C 32.808594 60.527344 34.367188 58.53125 35.972656 56.574219 C 37.582031 54.617188 39.234375 52.699219 40.933594 50.824219 C 42.636719 48.945312 44.382812 47.113281 46.171875 45.324219 C 47.960938 43.53125 49.796875 41.785156 51.671875 40.085938 C 53.550781 38.386719 55.464844 36.730469 57.421875 35.125 C 59.382812 33.519531 61.378906 31.960938 63.410156 30.453125 C 65.445312 28.945312 67.515625 27.484375 69.621094 26.078125 C 71.726562 24.671875 73.867188 23.316406 76.039062 22.015625 C 78.210938 20.714844 80.414062 19.464844 82.644531 18.273438 C 84.878906 17.078125 87.140625 15.941406 89.429688 14.855469 C 91.71875 13.773438 94.035156 12.75 96.375 11.777344 C 98.714844 10.808594 101.074219 9.898438 103.460938 9.046875 C 105.84375 8.191406 108.25 7.398438 110.671875 6.664062 C 113.09375 5.929688 115.535156 5.253906 117.992188 4.636719 C 120.449219 4.023438 122.917969 3.46875 125.402344 2.972656 C 127.886719 2.480469 130.378906 2.046875 132.886719 1.675781 C 135.390625 1.304688 137.902344 0.992188 140.421875 0.746094 C 142.945312 0.496094 145.46875 0.3125 148 0.1875 C 150.527344 0.0625 153.058594 0 155.589844 0 C 158.125 0 160.65625 0.0625 163.183594 0.1875 C 165.714844 0.3125 168.238281 0.496094 170.757812 0.746094 C 173.277344 0.992188 175.792969 1.304688 178.296875 1.675781 C 180.800781 2.046875 183.296875 2.480469 185.78125 2.972656 C 188.261719 3.46875 190.734375 4.023438 193.191406 4.636719 C 195.648438 5.253906 198.085938 5.929688 200.511719 6.664062 C 202.933594 7.398438 205.335938 8.191406 207.722656 9.046875 C 210.105469 9.898438 212.46875 10.808594 214.808594 11.777344 C 217.148438 12.75 219.460938 13.773438 221.75 14.855469 C 224.042969 15.941406 226.300781 17.078125 228.535156 18.273438 C 230.769531 19.464844 232.972656 20.714844 235.144531 22.015625 C 237.316406 23.316406 239.457031 24.671875 241.5625 26.078125 C 243.667969 27.484375 245.738281 28.945312 247.769531 30.453125 C 249.804688 31.960938 251.800781 33.519531 253.757812 35.125 C 255.714844 36.730469 257.632812 38.386719 259.507812 40.085938 C 261.386719 41.785156 263.21875 43.53125 265.011719 45.324219 C 266.800781 47.113281 268.546875 48.945312 270.246094 50.824219 C 271.949219 52.699219 273.601562 54.617188 275.207031 56.574219 C 276.816406 58.53125 278.371094 60.527344 279.882812 62.5625 C 281.390625 64.597656 282.847656 66.667969 284.253906 68.773438 C 285.660156 70.878906 287.015625 73.015625 288.316406 75.1875 C 289.621094 77.359375 290.867188 79.5625 292.0625 81.796875 C 293.253906 84.03125 294.394531 86.292969 295.476562 88.582031 C 296.558594 90.871094 297.585938 93.183594 298.554688 95.523438 C 299.523438 97.863281 300.433594 100.226562 301.289062 102.609375 C 302.140625 104.996094 302.933594 107.398438 303.671875 109.824219 C 304.40625 112.246094 305.082031 114.6875 305.695312 117.144531 C 306.3125 119.597656 306.867188 122.070312 307.359375 124.554688 C 307.855469 127.039062 308.285156 129.53125 308.660156 132.035156 C 309.03125 134.542969 309.339844 137.054688 309.589844 139.574219 C 309.835938 142.09375 310.023438 144.621094 310.148438 147.148438 C 310.269531 149.679688 310.332031 152.210938 310.332031 154.742188 Z M 310.332031 154.742188 " fill-opacity="1" fill-rule="nonzero"/></g><path fill="#c84646" d="M 234.21875 149.304688 L 219.082031 145.617188 L 190.105469 145.617188 C 189.007812 145.617188 188.113281 144.722656 188.113281 143.621094 L 188.113281 116.027344 L 181.007812 116.027344 L 181.007812 166.269531 L 246.261719 166.269531 L 246.261719 161.46875 C 246.261719 153.792969 241.652344 151.121094 234.21875 149.304688 Z M 195.519531 156.875 L 192.167969 156.875 C 191.066406 156.875 190.171875 155.980469 190.171875 154.882812 C 190.171875 153.78125 191.066406 152.890625 192.167969 152.890625 L 195.519531 152.890625 C 196.621094 152.890625 197.511719 153.78125 197.511719 154.882812 C 197.511719 155.980469 196.621094 156.875 195.519531 156.875 Z M 195.519531 156.875 " fill-opacity="1" fill-rule="nonzero"/><path fill="#c84646" d="M 216.523438 141.628906 L 192.097656 141.628906 L 192.097656 116.027344 L 205.800781 116.027344 C 206.746094 116.027344 207.863281 116.464844 208.976562 119.71875 Z M 216.523438 141.628906 " fill-opacity="1" fill-rule="nonzero"/><path fill="#c84646" d="M 113.4375 192.242188 C 113.433594 192.242188 113.433594 192.238281 113.433594 192.234375 C 113.425781 192.15625 113.417969 192.074219 113.417969 191.996094 C 113.417969 191.984375 113.417969 191.976562 113.421875 191.96875 L 113.421875 191.960938 C 112.9375 183.800781 106.113281 177.3125 97.789062 177.3125 C 89.15625 177.3125 82.132812 184.300781 82.132812 192.886719 C 82.132812 201.476562 89.15625 208.464844 97.789062 208.464844 C 106.425781 208.464844 113.449219 201.476562 113.449219 192.886719 C 113.449219 192.671875 113.445312 192.457031 113.4375 192.242188 Z M 97.789062 203.34375 C 92.003906 203.34375 87.296875 198.652344 87.296875 192.886719 C 87.296875 187.132812 92.003906 182.449219 97.789062 182.449219 C 103.570312 182.449219 108.269531 187.132812 108.269531 192.886719 C 108.269531 198.652344 103.570312 203.34375 97.789062 203.34375 Z M 97.789062 203.34375 " fill-opacity="1" fill-rule="nonzero"/><path fill="#c84646" d="M 213.421875 177.3125 C 205.105469 177.3125 198.28125 183.792969 197.789062 191.949219 C 197.792969 191.960938 197.792969 191.980469 197.792969 191.996094 C 197.792969 192.085938 197.785156 192.171875 197.773438 192.257812 C 197.765625 192.46875 197.761719 192.675781 197.761719 192.886719 C 197.761719 201.476562 204.785156 208.464844 213.421875 208.464844 C 222.054688 208.464844 229.078125 201.476562 229.078125 192.886719 C 229.078125 184.300781 222.054688 177.3125 213.421875 177.3125 Z M 213.421875 203.34375 C 207.640625 203.34375 202.941406 198.652344 202.941406 192.886719 C 202.941406 187.132812 207.640625 182.449219 213.421875 182.449219 C 219.207031 182.449219 223.914062 187.132812 223.914062 192.886719 C 223.914062 198.652344 219.207031 203.34375 213.421875 203.34375 Z M 213.421875 203.34375 " fill-opacity="1" fill-rule="nonzero"/><path fill="#c84646" d="M 246.261719 170.253906 L 246.261719 187.515625 C 246.261719 189.082031 246.011719 189.503906 245.90625 189.609375 C 245.816406 189.703125 245.394531 190.003906 243.691406 190.003906 L 232.851562 190.003906 C 231.445312 180.582031 223.269531 173.328125 213.421875 173.328125 C 203.574219 173.328125 195.394531 180.582031 193.988281 190.003906 L 181.007812 190.003906 L 181.007812 170.253906 Z M 246.261719 170.253906 " fill-opacity="1" fill-rule="nonzero"/><path fill="#c84646" d="M 219.929688 192.886719 C 219.929688 196.457031 217.011719 199.359375 213.421875 199.359375 C 209.839844 199.359375 206.925781 196.457031 206.925781 192.886719 C 206.925781 189.328125 209.839844 186.433594 213.421875 186.433594 C 217.011719 186.433594 219.929688 189.328125 219.929688 192.886719 Z M 219.929688 192.886719 " fill-opacity="1" fill-rule="nonzero"/><path fill="#c84646" d="M 104.285156 192.886719 C 104.285156 196.457031 101.371094 199.359375 97.789062 199.359375 C 94.199219 199.359375 91.28125 196.457031 91.28125 192.886719 C 91.28125 189.328125 94.199219 186.433594 97.789062 186.433594 C 101.371094 186.433594 104.285156 189.328125 104.285156 192.886719 Z M 104.285156 192.886719 " fill-opacity="1" fill-rule="nonzero"/><path fill="#c84646" d="M 177.023438 170.253906 L 177.023438 190.003906 L 117.222656 190.003906 C 115.816406 180.582031 107.636719 173.328125 97.789062 173.328125 C 87.941406 173.328125 79.765625 180.582031 78.359375 190.003906 L 70.109375 190.003906 C 67.25 190.003906 64.921875 187.691406 64.921875 184.851562 L 64.921875 170.253906 Z M 177.023438 170.253906 " fill-opacity="1" fill-rule="nonzero"/><path fill="#c84646" d="M 171.839844 101.019531 L 70.109375 101.019531 C 67.25 101.019531 64.921875 103.332031 64.921875 106.171875 L 64.921875 166.269531 L 177.023438 166.269531 L 177.023438 106.171875 C 177.023438 103.332031 174.695312 101.019531 171.839844 101.019531 Z M 146.132812 152.378906 C 146.132812 154.664062 144.269531 156.523438 141.976562 156.523438 L 99.96875 156.523438 C 97.683594 156.523438 95.828125 154.664062 95.828125 152.378906 L 95.828125 114.914062 C 95.828125 112.628906 97.683594 110.765625 99.96875 110.765625 L 141.976562 110.765625 C 144.269531 110.765625 146.132812 112.628906 146.132812 114.914062 Z M 146.132812 152.378906 " fill-opacity="1" fill-rule="nonzero"/><path fill="#c84646" d="M 125.453125 114.753906 L 125.453125 122.9375 L 121.917969 121.035156 C 121.328125 120.714844 120.617188 120.714844 120.027344 121.035156 L 116.507812 122.933594 L 116.507812 114.753906 Z M 125.453125 114.753906 " fill-opacity="1" fill-rule="nonzero"/><path fill="#c84646" d="M 141.976562 114.753906 L 129.4375 114.753906 L 129.4375 126.273438 C 129.4375 126.976562 129.070312 127.625 128.464844 127.984375 C 127.863281 128.34375 127.117188 128.359375 126.5 128.027344 L 120.972656 125.054688 L 115.460938 128.027344 C 115.164062 128.1875 114.839844 128.265625 114.515625 128.265625 C 114.160156 128.265625 113.808594 128.171875 113.492188 127.984375 C 112.890625 127.625 112.523438 126.972656 112.523438 126.273438 L 112.523438 114.753906 L 99.96875 114.753906 C 99.894531 114.753906 99.8125 114.824219 99.8125 114.914062 L 99.8125 152.378906 C 99.8125 152.46875 99.894531 152.539062 99.96875 152.539062 L 141.976562 152.539062 C 142.066406 152.539062 142.148438 152.460938 142.148438 152.378906 L 142.148438 114.914062 C 142.148438 114.828125 142.066406 114.753906 141.976562 114.753906 Z M 118.242188 146.34375 C 118.242188 147.871094 117.007812 149.113281 115.484375 149.113281 L 106.277344 149.113281 C 104.75 149.113281 103.503906 147.871094 103.503906 146.34375 L 103.503906 140.386719 C 103.503906 138.859375 104.75 137.617188 106.277344 137.617188 L 115.484375 137.617188 C 117.007812 137.617188 118.242188 138.859375 118.242188 140.386719 Z M 118.242188 146.34375 " fill-opacity="1" fill-rule="nonzero"/><path fill="#c84646" d="M 107.488281 141.605469 L 114.257812 141.605469 L 114.257812 145.128906 L 107.488281 145.128906 Z M 107.488281 141.605469 " fill-opacity="1" fill-rule="nonzero"/><g fill="#435ebe" fill-opacity="1"><g transform="translate(352.793699, 130.794255)"><g><path d="M 21.546875 0 L 21.546875 -50.1875 L 1.1875 -50.1875 L 1.1875 -59.578125 L 53.0625 -59.578125 L 53.0625 -50.1875 L 32.703125 -50.1875 L 32.703125 0 Z M 21.546875 0 "/></g></g></g><g fill="#435ebe" fill-opacity="1"><g transform="translate(406.95805, 130.794255)"><g><path d="M 7.1875 0 L 7.1875 -59.578125 L 33.46875 -59.578125 C 40.113281 -59.578125 45.222656 -58.023438 48.796875 -54.921875 C 52.378906 -51.828125 54.171875 -47.4375 54.171875 -41.75 C 54.171875 -38.3125 53.4375 -35.351562 51.96875 -32.875 C 50.5 -30.394531 48.441406 -28.460938 45.796875 -27.078125 C 43.148438 -25.703125 39.96875 -24.898438 36.25 -24.671875 L 36.75 -25.34375 L 38.78125 -25.265625 C 40.644531 -25.148438 42.296875 -24.570312 43.734375 -23.53125 C 45.171875 -22.488281 46.476562 -20.84375 47.65625 -18.59375 L 57.71875 0 L 45.46875 0 L 35.484375 -18.59375 C 34.804688 -19.882812 34.046875 -20.878906 33.203125 -21.578125 C 32.359375 -22.285156 31.398438 -22.78125 30.328125 -23.0625 C 29.265625 -23.34375 28.03125 -23.484375 26.625 -23.484375 L 18.34375 -23.484375 L 18.34375 0 Z M 18.34375 -31.9375 L 31.859375 -31.9375 C 35.691406 -31.9375 38.550781 -32.722656 40.4375 -34.296875 C 42.320312 -35.878906 43.265625 -38.25 43.265625 -41.40625 C 43.265625 -44.5 42.304688 -46.804688 40.390625 -48.328125 C 38.472656 -49.847656 35.597656 -50.609375 31.765625 -50.609375 L 18.34375 -50.609375 Z M 18.34375 -31.9375 "/></g></g></g><g fill="#435ebe" fill-opacity="1"><g transform="translate(466.86839, 130.794255)"><g><path d="M 0.671875 0 L 27.546875 -59.578125 L 37.015625 -59.578125 L 63.875 0 L 52.46875 0 L 45.296875 -16.734375 L 50.03125 -13.265625 L 14.359375 -13.265625 L 19.09375 -16.734375 L 12 0 Z M 32.109375 -47.65625 L 20.28125 -19.6875 L 18.078125 -22.3125 L 46.3125 -22.3125 L 44.1875 -19.6875 L 32.359375 -47.65625 Z M 32.109375 -47.65625 "/></g></g></g><g fill="#435ebe" fill-opacity="1"><g transform="translate(531.341719, 130.794255)"><g><path d="M 7.1875 0 L 7.1875 -59.578125 L 16.0625 -59.578125 L 49.34375 -15.96875 L 48 -15.96875 L 48 -59.578125 L 58.5625 -59.578125 L 58.5625 0 L 49.4375 0 L 16.484375 -43.4375 L 17.65625 -43.4375 L 17.65625 0 Z M 7.1875 0 "/></g></g></g><g fill="#435ebe" fill-opacity="1"><g transform="translate(597.082543, 130.794255)"><g><path d="M 28.140625 0.84375 C 24.929688 0.84375 21.859375 0.585938 18.921875 0.078125 C 15.992188 -0.421875 13.304688 -1.148438 10.859375 -2.109375 C 8.410156 -3.066406 6.253906 -4.222656 4.390625 -5.578125 L 7.859375 -14.453125 C 9.710938 -13.148438 11.707031 -12.0625 13.84375 -11.1875 C 15.988281 -10.320312 18.257812 -9.675781 20.65625 -9.25 C 23.050781 -8.832031 25.546875 -8.625 28.140625 -8.625 C 32.421875 -8.625 35.585938 -9.335938 37.640625 -10.765625 C 39.703125 -12.203125 40.734375 -14.160156 40.734375 -16.640625 C 40.734375 -17.992188 40.421875 -19.109375 39.796875 -19.984375 C 39.179688 -20.859375 38.15625 -21.601562 36.71875 -22.21875 C 35.28125 -22.84375 33.40625 -23.378906 31.09375 -23.828125 L 21.546875 -25.6875 C 16.078125 -26.757812 12.046875 -28.6875 9.453125 -31.46875 C 6.867188 -34.257812 5.578125 -37.851562 5.578125 -42.25 C 5.578125 -45.914062 6.585938 -49.113281 8.609375 -51.84375 C 10.640625 -54.570312 13.441406 -56.679688 17.015625 -58.171875 C 20.597656 -59.671875 24.726562 -60.421875 29.40625 -60.421875 C 32.164062 -60.421875 34.8125 -60.164062 37.34375 -59.65625 C 39.882812 -59.144531 42.222656 -58.382812 44.359375 -57.375 C 46.503906 -56.363281 48.394531 -55.148438 50.03125 -53.734375 L 46.46875 -45.125 C 44.101562 -47.15625 41.5 -48.632812 38.65625 -49.5625 C 35.8125 -50.488281 32.703125 -50.953125 29.328125 -50.953125 C 26.734375 -50.953125 24.488281 -50.613281 22.59375 -49.9375 C 20.707031 -49.257812 19.242188 -48.285156 18.203125 -47.015625 C 17.160156 -45.753906 16.640625 -44.25 16.640625 -42.5 C 16.640625 -40.476562 17.300781 -38.898438 18.625 -37.765625 C 19.957031 -36.640625 22.285156 -35.738281 25.609375 -35.0625 L 35.0625 -33.203125 C 40.695312 -32.078125 44.894531 -30.21875 47.65625 -27.625 C 50.414062 -25.039062 51.796875 -21.609375 51.796875 -17.328125 C 51.796875 -13.722656 50.820312 -10.550781 48.875 -7.8125 C 46.9375 -5.082031 44.191406 -2.957031 40.640625 -1.4375 C 37.097656 0.0820312 32.929688 0.84375 28.140625 0.84375 Z M 28.140625 0.84375 "/></g></g></g><g fill="#435ebe" fill-opacity="1"><g transform="translate(652.345399, 130.794255)"><g><path d="M 7.1875 0 L 7.1875 -59.578125 L 33.546875 -59.578125 C 37.941406 -59.578125 41.671875 -58.84375 44.734375 -57.375 C 47.804688 -55.90625 50.144531 -53.773438 51.75 -50.984375 C 53.363281 -48.203125 54.171875 -44.835938 54.171875 -40.890625 C 54.171875 -37.066406 53.363281 -33.742188 51.75 -30.921875 C 50.144531 -28.109375 47.804688 -25.941406 44.734375 -24.421875 C 41.671875 -22.898438 37.941406 -22.140625 33.546875 -22.140625 L 18.34375 -22.140625 L 18.34375 0 Z M 18.34375 -31.015625 L 31.765625 -31.015625 C 35.546875 -31.015625 38.40625 -31.828125 40.34375 -33.453125 C 42.289062 -35.085938 43.265625 -37.566406 43.265625 -40.890625 C 43.265625 -44.160156 42.289062 -46.597656 40.34375 -48.203125 C 38.40625 -49.804688 35.546875 -50.609375 31.765625 -50.609375 L 18.34375 -50.609375 Z M 18.34375 -31.015625 "/></g></g></g><g fill="#435ebe" fill-opacity="1"><g transform="translate(709.636228, 130.794255)"><g><path d="M 34.046875 0.84375 C 29.660156 0.84375 25.691406 0.125 22.140625 -1.3125 C 18.585938 -2.75 15.539062 -4.800781 13 -7.46875 C 10.46875 -10.144531 8.523438 -13.367188 7.171875 -17.140625 C 5.828125 -20.921875 5.15625 -25.148438 5.15625 -29.828125 C 5.15625 -34.503906 5.828125 -38.710938 7.171875 -42.453125 C 8.523438 -46.203125 10.46875 -49.414062 13 -52.09375 C 15.539062 -54.769531 18.585938 -56.828125 22.140625 -58.265625 C 25.691406 -59.703125 29.660156 -60.421875 34.046875 -60.421875 C 38.390625 -60.421875 42.332031 -59.703125 45.875 -58.265625 C 49.425781 -56.828125 52.46875 -54.785156 55 -52.140625 C 57.539062 -49.492188 59.488281 -46.296875 60.84375 -42.546875 C 62.195312 -38.796875 62.875 -34.582031 62.875 -29.90625 C 62.875 -25.238281 62.195312 -21.015625 60.84375 -17.234375 C 59.488281 -13.460938 57.539062 -10.222656 55 -7.515625 C 52.46875 -4.816406 49.425781 -2.75 45.875 -1.3125 C 42.332031 0.125 38.390625 0.84375 34.046875 0.84375 Z M 34.046875 -8.78125 C 37.710938 -8.78125 40.828125 -9.597656 43.390625 -11.234375 C 45.953125 -12.867188 47.921875 -15.265625 49.296875 -18.421875 C 50.679688 -21.578125 51.375 -25.378906 51.375 -29.828125 C 51.375 -34.335938 50.695312 -38.15625 49.34375 -41.28125 C 47.988281 -44.40625 46.015625 -46.769531 43.421875 -48.375 C 40.835938 -49.976562 37.710938 -50.78125 34.046875 -50.78125 C 30.390625 -50.78125 27.265625 -49.976562 24.671875 -48.375 C 22.078125 -46.769531 20.085938 -44.40625 18.703125 -41.28125 C 17.328125 -38.15625 16.640625 -34.335938 16.640625 -29.828125 C 16.640625 -25.378906 17.328125 -21.578125 18.703125 -18.421875 C 20.085938 -15.265625 22.078125 -12.867188 24.671875 -11.234375 C 27.265625 -9.597656 30.390625 -8.78125 34.046875 -8.78125 Z M 34.046875 -8.78125 "/></g></g></g><g fill="#435ebe" fill-opacity="1"><g transform="translate(777.658533, 130.794255)"><g><path d="M 7.1875 0 L 7.1875 -59.578125 L 33.46875 -59.578125 C 40.113281 -59.578125 45.222656 -58.023438 48.796875 -54.921875 C 52.378906 -51.828125 54.171875 -47.4375 54.171875 -41.75 C 54.171875 -38.3125 53.4375 -35.351562 51.96875 -32.875 C 50.5 -30.394531 48.441406 -28.460938 45.796875 -27.078125 C 43.148438 -25.703125 39.96875 -24.898438 36.25 -24.671875 L 36.75 -25.34375 L 38.78125 -25.265625 C 40.644531 -25.148438 42.296875 -24.570312 43.734375 -23.53125 C 45.171875 -22.488281 46.476562 -20.84375 47.65625 -18.59375 L 57.71875 0 L 45.46875 0 L 35.484375 -18.59375 C 34.804688 -19.882812 34.046875 -20.878906 33.203125 -21.578125 C 32.359375 -22.285156 31.398438 -22.78125 30.328125 -23.0625 C 29.265625 -23.34375 28.03125 -23.484375 26.625 -23.484375 L 18.34375 -23.484375 L 18.34375 0 Z M 18.34375 -31.9375 L 31.859375 -31.9375 C 35.691406 -31.9375 38.550781 -32.722656 40.4375 -34.296875 C 42.320312 -35.878906 43.265625 -38.25 43.265625 -41.40625 C 43.265625 -44.5 42.304688 -46.804688 40.390625 -48.328125 C 38.472656 -49.847656 35.597656 -50.609375 31.765625 -50.609375 L 18.34375 -50.609375 Z M 18.34375 -31.9375 "/></g></g></g><g fill="#435ebe" fill-opacity="1"><g transform="translate(837.568899, 130.794255)"><g><path d="M 21.546875 0 L 21.546875 -50.1875 L 1.1875 -50.1875 L 1.1875 -59.578125 L 53.0625 -59.578125 L 53.0625 -50.1875 L 32.703125 -50.1875 L 32.703125 0 Z M 21.546875 0 "/></g></g></g><g fill="#435ebe" fill-opacity="1"><g transform="translate(891.733224, 130.794255)"><g><path d="M 7.1875 0 L 7.1875 -59.578125 L 47.484375 -59.578125 L 47.484375 -50.53125 L 18 -50.53125 L 18 -34.734375 L 45.625 -34.734375 L 45.625 -25.6875 L 18 -25.6875 L 18 -9.046875 L 47.484375 -9.046875 L 47.484375 0 Z M 7.1875 0 "/></g></g></g><g fill="#435ebe" fill-opacity="1"><g transform="translate(352.793699, 248.558772)"><g><path d="M 28.140625 0.84375 C 24.929688 0.84375 21.859375 0.585938 18.921875 0.078125 C 15.992188 -0.421875 13.304688 -1.148438 10.859375 -2.109375 C 8.410156 -3.066406 6.253906 -4.222656 4.390625 -5.578125 L 7.859375 -14.453125 C 9.710938 -13.148438 11.707031 -12.0625 13.84375 -11.1875 C 15.988281 -10.320312 18.257812 -9.675781 20.65625 -9.25 C 23.050781 -8.832031 25.546875 -8.625 28.140625 -8.625 C 32.421875 -8.625 35.585938 -9.335938 37.640625 -10.765625 C 39.703125 -12.203125 40.734375 -14.160156 40.734375 -16.640625 C 40.734375 -17.992188 40.421875 -19.109375 39.796875 -19.984375 C 39.179688 -20.859375 38.15625 -21.601562 36.71875 -22.21875 C 35.28125 -22.84375 33.40625 -23.378906 31.09375 -23.828125 L 21.546875 -25.6875 C 16.078125 -26.757812 12.046875 -28.6875 9.453125 -31.46875 C 6.867188 -34.257812 5.578125 -37.851562 5.578125 -42.25 C 5.578125 -45.914062 6.585938 -49.113281 8.609375 -51.84375 C 10.640625 -54.570312 13.441406 -56.679688 17.015625 -58.171875 C 20.597656 -59.671875 24.726562 -60.421875 29.40625 -60.421875 C 32.164062 -60.421875 34.8125 -60.164062 37.34375 -59.65625 C 39.882812 -59.144531 42.222656 -58.382812 44.359375 -57.375 C 46.503906 -56.363281 48.394531 -55.148438 50.03125 -53.734375 L 46.46875 -45.125 C 44.101562 -47.15625 41.5 -48.632812 38.65625 -49.5625 C 35.8125 -50.488281 32.703125 -50.953125 29.328125 -50.953125 C 26.734375 -50.953125 24.488281 -50.613281 22.59375 -49.9375 C 20.707031 -49.257812 19.242188 -48.285156 18.203125 -47.015625 C 17.160156 -45.753906 16.640625 -44.25 16.640625 -42.5 C 16.640625 -40.476562 17.300781 -38.898438 18.625 -37.765625 C 19.957031 -36.640625 22.285156 -35.738281 25.609375 -35.0625 L 35.0625 -33.203125 C 40.695312 -32.078125 44.894531 -30.21875 47.65625 -27.625 C 50.414062 -25.039062 51.796875 -21.609375 51.796875 -17.328125 C 51.796875 -13.722656 50.820312 -10.550781 48.875 -7.8125 C 46.9375 -5.082031 44.191406 -2.957031 40.640625 -1.4375 C 37.097656 0.0820312 32.929688 0.84375 28.140625 0.84375 Z M 28.140625 0.84375 "/></g></g></g><g fill="#435ebe" fill-opacity="1"><g transform="translate(408.056555, 248.558772)"><g><path d="M 0.671875 0 L 27.546875 -59.578125 L 37.015625 -59.578125 L 63.875 0 L 52.46875 0 L 45.296875 -16.734375 L 50.03125 -13.265625 L 14.359375 -13.265625 L 19.09375 -16.734375 L 12 0 Z M 32.109375 -47.65625 L 20.28125 -19.6875 L 18.078125 -22.3125 L 46.3125 -22.3125 L 44.1875 -19.6875 L 32.359375 -47.65625 Z M 32.109375 -47.65625 "/></g></g></g><g fill="#435ebe" fill-opacity="1"><g transform="translate(472.529884, 248.558772)"><g><path d="M 7.1875 0 L 7.1875 -59.578125 L 16.0625 -59.578125 L 49.34375 -15.96875 L 48 -15.96875 L 48 -59.578125 L 58.5625 -59.578125 L 58.5625 0 L 49.4375 0 L 16.484375 -43.4375 L 17.65625 -43.4375 L 17.65625 0 Z M 7.1875 0 "/></g></g></g><g fill="#435ebe" fill-opacity="1"><g transform="translate(538.270708, 248.558772)"><g><path d="M 34.734375 0.84375 C 28.648438 0.84375 23.394531 -0.394531 18.96875 -2.875 C 14.550781 -5.351562 11.144531 -8.882812 8.75 -13.46875 C 6.351562 -18.0625 5.15625 -23.515625 5.15625 -29.828125 C 5.15625 -36.140625 6.351562 -41.578125 8.75 -46.140625 C 11.144531 -50.703125 14.535156 -54.222656 18.921875 -56.703125 C 23.316406 -59.179688 28.585938 -60.421875 34.734375 -60.421875 C 38.785156 -60.421875 42.570312 -59.828125 46.09375 -58.640625 C 49.613281 -57.460938 52.554688 -55.71875 54.921875 -53.40625 L 51.203125 -44.609375 C 48.671875 -46.753906 46.109375 -48.289062 43.515625 -49.21875 C 40.921875 -50.144531 38.101562 -50.609375 35.0625 -50.609375 C 29.257812 -50.609375 24.765625 -48.820312 21.578125 -45.25 C 18.398438 -41.675781 16.8125 -36.535156 16.8125 -29.828125 C 16.8125 -23.117188 18.390625 -17.960938 21.546875 -14.359375 C 24.703125 -10.753906 29.207031 -8.953125 35.0625 -8.953125 C 38.101562 -8.953125 40.921875 -9.414062 43.515625 -10.34375 C 46.109375 -11.28125 48.671875 -12.816406 51.203125 -14.953125 L 54.921875 -6.171875 C 52.554688 -3.910156 49.613281 -2.175781 46.09375 -0.96875 C 42.570312 0.238281 38.785156 0.84375 34.734375 0.84375 Z M 34.734375 0.84375 "/></g></g></g><g fill="#435ebe" fill-opacity="1"><g transform="translate(596.998047, 248.558772)"><g><path d="M 7.1875 0 L 7.1875 -59.578125 L 18.34375 -59.578125 L 18.34375 -34.90625 L 48.59375 -34.90625 L 48.59375 -59.578125 L 59.734375 -59.578125 L 59.734375 0 L 48.59375 0 L 48.59375 -25.515625 L 18.34375 -25.515625 L 18.34375 0 Z M 7.1875 0 "/></g></g></g><g fill="#435ebe" fill-opacity="1"><g transform="translate(663.921872, 248.558772)"><g><path d="M 7.1875 0 L 7.1875 -59.578125 L 47.484375 -59.578125 L 47.484375 -50.53125 L 18 -50.53125 L 18 -34.734375 L 45.625 -34.734375 L 45.625 -25.6875 L 18 -25.6875 L 18 -9.046875 L 47.484375 -9.046875 L 47.484375 0 Z M 7.1875 0 "/></g></g></g><g fill="#435ebe" fill-opacity="1"><g transform="translate(716.565243, 248.558772)"><g><path d="M 4.3125 0 L 4.3125 -7.9375 L 38.1875 -54 L 38.609375 -50.1875 L 4.3125 -50.1875 L 4.3125 -59.578125 L 48.75 -59.578125 L 48.75 -51.625 L 14.78125 -5.578125 L 14.359375 -9.375 L 49.9375 -9.375 L 49.9375 0 Z M 4.3125 0 "/></g></g></g></svg>