<svg xmlns="http://www.w3.org/2000/svg" xmlns:xlink="http://www.w3.org/1999/xlink" width="1800" zoomAndPan="magnify" viewBox="0 0 1350 974.999993" height="1300" preserveAspectRatio="xMidYMid meet" version="1.0"><defs><clipPath id="83ed73fe8d"><path d="M 181.160156 7.28125 L 1141.910156 7.28125 L 1141.910156 968 L 181.160156 968 Z M 181.160156 7.28125 " clip-rule="nonzero"/></clipPath></defs><g clip-path="url(#83ed73fe8d)"><path fill="#7cb342" d="M 1141.59375 487.5 C 1141.59375 495.359375 1141.402344 503.210938 1141.015625 511.0625 C 1140.628906 518.910156 1140.050781 526.746094 1139.28125 534.570312 C 1138.511719 542.390625 1137.550781 550.1875 1136.394531 557.960938 C 1135.242188 565.734375 1133.898438 573.476562 1132.367188 581.183594 C 1130.832031 588.894531 1129.113281 596.558594 1127.203125 604.183594 C 1125.292969 611.804688 1123.195312 619.378906 1120.914062 626.898438 C 1118.632812 634.417969 1116.167969 641.878906 1113.523438 649.28125 C 1110.875 656.679688 1108.046875 664.007812 1105.039062 671.269531 C 1102.03125 678.53125 1098.847656 685.714844 1095.488281 692.820312 C 1092.128906 699.921875 1088.59375 706.941406 1084.890625 713.871094 C 1081.183594 720.804688 1077.3125 727.640625 1073.273438 734.378906 C 1069.230469 741.121094 1065.027344 747.757812 1060.664062 754.292969 C 1056.296875 760.828125 1051.773438 767.25 1047.089844 773.5625 C 1042.410156 779.875 1037.574219 786.070312 1032.589844 792.144531 C 1027.605469 798.222656 1022.472656 804.171875 1017.195312 809.992188 C 1011.917969 815.816406 1006.5 821.507812 1000.941406 827.0625 C 995.382812 832.621094 989.695312 838.039062 983.871094 843.316406 C 978.046875 848.59375 972.097656 853.726562 966.023438 858.710938 C 959.949219 863.699219 953.753906 868.53125 947.441406 873.214844 C 941.128906 877.894531 934.707031 882.417969 928.171875 886.785156 C 921.636719 891.152344 915 895.355469 908.257812 899.394531 C 901.515625 903.433594 894.679688 907.308594 887.75 911.011719 C 880.816406 914.71875 873.800781 918.25 866.695312 921.609375 C 859.589844 924.96875 852.410156 928.152344 845.148438 931.160156 C 837.886719 934.167969 830.558594 936.996094 823.15625 939.644531 C 815.757812 942.292969 808.296875 944.757812 800.777344 947.039062 C 793.253906 949.320312 785.683594 951.414062 778.058594 953.324219 C 770.4375 955.234375 762.769531 956.957031 755.0625 958.488281 C 747.355469 960.023438 739.613281 961.363281 731.839844 962.519531 C 724.066406 963.671875 716.269531 964.632812 708.445312 965.402344 C 700.625 966.175781 692.789062 966.753906 684.941406 967.136719 C 677.089844 967.523438 669.234375 967.714844 661.375 967.714844 C 653.519531 967.714844 645.664062 967.523438 637.8125 967.136719 C 629.964844 966.753906 622.128906 966.175781 614.308594 965.402344 C 606.484375 964.632812 598.6875 963.671875 590.914062 962.519531 C 583.140625 961.363281 575.398438 960.023438 567.691406 958.488281 C 559.984375 956.957031 552.316406 955.234375 544.695312 953.324219 C 537.070312 951.414062 529.496094 949.320312 521.976562 947.039062 C 514.457031 944.757812 506.996094 942.292969 499.597656 939.644531 C 492.195312 936.996094 484.867188 934.167969 477.605469 931.160156 C 470.34375 928.152344 463.164062 924.96875 456.058594 921.609375 C 448.953125 918.25 441.933594 914.71875 435.003906 911.011719 C 428.074219 907.308594 421.238281 903.433594 414.496094 899.394531 C 407.753906 895.355469 401.117188 891.152344 394.582031 886.785156 C 388.046875 882.417969 381.625 877.894531 375.3125 873.214844 C 369 868.53125 362.804688 863.699219 356.730469 858.710938 C 350.65625 853.726562 344.707031 848.59375 338.882812 843.316406 C 333.058594 838.039062 327.371094 832.621094 321.8125 827.0625 C 316.253906 821.507812 310.835938 815.816406 305.558594 809.992188 C 300.28125 804.171875 295.148438 798.222656 290.164062 792.144531 C 285.179688 786.070312 280.34375 779.875 275.664062 773.5625 C 270.980469 767.25 266.457031 760.828125 262.089844 754.292969 C 257.726562 747.757812 253.523438 741.121094 249.480469 734.378906 C 245.441406 727.640625 241.566406 720.804688 237.863281 713.871094 C 234.160156 706.941406 230.625 699.921875 227.265625 692.820312 C 223.90625 685.714844 220.722656 678.53125 217.714844 671.269531 C 214.707031 664.007812 211.878906 656.679688 209.230469 649.28125 C 206.585938 641.878906 204.121094 634.417969 201.839844 626.898438 C 199.558594 619.378906 197.460938 611.804688 195.550781 604.183594 C 193.640625 596.558594 191.921875 588.894531 190.386719 581.183594 C 188.855469 573.476562 187.511719 565.734375 186.359375 557.960938 C 185.203125 550.1875 184.242188 542.390625 183.472656 534.570312 C 182.703125 526.746094 182.125 518.910156 181.738281 511.0625 C 181.351562 503.210938 181.160156 495.359375 181.160156 487.5 C 181.160156 479.640625 181.351562 471.785156 181.738281 463.9375 C 182.125 456.085938 182.703125 448.25 183.472656 440.429688 C 184.242188 432.609375 185.203125 424.8125 186.359375 417.035156 C 187.511719 409.261719 188.855469 401.523438 190.386719 393.8125 C 191.921875 386.105469 193.640625 378.441406 195.550781 370.816406 C 197.460938 363.191406 199.558594 355.621094 201.839844 348.101562 C 204.121094 340.578125 206.585938 333.117188 209.230469 325.71875 C 211.878906 318.320312 214.707031 310.988281 217.714844 303.726562 C 220.722656 296.46875 223.90625 289.285156 227.265625 282.179688 C 230.625 275.074219 234.160156 268.058594 237.863281 261.125 C 241.566406 254.195312 245.441406 247.359375 249.480469 240.617188 C 253.523438 233.878906 257.726562 227.238281 262.089844 220.707031 C 266.457031 214.171875 270.980469 207.746094 275.664062 201.433594 C 280.34375 195.121094 285.179688 188.929688 290.164062 182.851562 C 295.148438 176.777344 300.28125 170.828125 305.558594 165.003906 C 310.835938 159.183594 316.253906 153.492188 321.8125 147.933594 C 327.371094 142.378906 333.058594 136.960938 338.882812 131.683594 C 344.707031 126.40625 350.65625 121.273438 356.730469 116.285156 C 362.804688 111.300781 369 106.46875 375.3125 101.785156 C 381.625 97.105469 388.046875 92.578125 394.582031 88.214844 C 401.117188 83.847656 407.753906 79.644531 414.496094 75.605469 C 421.238281 71.5625 428.074219 67.691406 435.003906 63.984375 C 441.933594 60.28125 448.953125 56.75 456.058594 53.386719 C 463.164062 50.027344 470.34375 46.84375 477.605469 43.835938 C 484.867188 40.828125 492.195312 38 499.597656 35.355469 C 506.996094 32.707031 514.457031 30.242188 521.976562 27.960938 C 529.496094 25.679688 537.070312 23.582031 544.695312 21.675781 C 552.316406 19.765625 559.984375 18.042969 567.691406 16.511719 C 575.398438 14.976562 583.140625 13.632812 590.914062 12.480469 C 598.6875 11.328125 606.484375 10.367188 614.308594 9.59375 C 622.128906 8.824219 629.964844 8.246094 637.8125 7.859375 C 645.664062 7.476562 653.519531 7.28125 661.375 7.28125 C 669.234375 7.28125 677.089844 7.476562 684.941406 7.859375 C 692.789062 8.246094 700.625 8.824219 708.445312 9.59375 C 716.269531 10.367188 724.066406 11.328125 731.839844 12.480469 C 739.613281 13.632812 747.355469 14.976562 755.0625 16.511719 C 762.769531 18.042969 770.4375 19.765625 778.058594 21.675781 C 785.683594 23.582031 793.253906 25.679688 800.777344 27.960938 C 808.296875 30.242188 815.757812 32.707031 823.15625 35.355469 C 830.558594 38 837.886719 40.828125 845.148438 43.835938 C 852.410156 46.84375 859.589844 50.027344 866.695312 53.386719 C 873.800781 56.75 880.816406 60.28125 887.75 63.984375 C 894.679688 67.691406 901.515625 71.5625 908.257812 75.605469 C 915 79.644531 921.636719 83.847656 928.171875 88.214844 C 934.707031 92.578125 941.128906 97.105469 947.441406 101.785156 C 953.753906 106.46875 959.949219 111.300781 966.023438 116.285156 C 972.097656 121.273438 978.046875 126.40625 983.871094 131.683594 C 989.695312 136.960938 995.382812 142.378906 1000.941406 147.933594 C 1006.5 153.492188 1011.917969 159.183594 1017.195312 165.003906 C 1022.472656 170.828125 1027.605469 176.777344 1032.589844 182.851562 C 1037.574219 188.929688 1042.410156 195.121094 1047.089844 201.433594 C 1051.773438 207.746094 1056.296875 214.171875 1060.664062 220.707031 C 1065.027344 227.238281 1069.230469 233.878906 1073.273438 240.617188 C 1077.3125 247.359375 1081.183594 254.195312 1084.890625 261.125 C 1088.59375 268.058594 1092.128906 275.074219 1095.488281 282.179688 C 1098.847656 289.285156 1102.03125 296.46875 1105.039062 303.726562 C 1108.046875 310.988281 1110.875 318.320312 1113.523438 325.71875 C 1116.167969 333.117188 1118.632812 340.578125 1120.914062 348.101562 C 1123.195312 355.621094 1125.292969 363.191406 1127.203125 370.816406 C 1129.113281 378.441406 1130.832031 386.105469 1132.367188 393.8125 C 1133.898438 401.523438 1135.242188 409.261719 1136.394531 417.035156 C 1137.550781 424.8125 1138.511719 432.609375 1139.28125 440.429688 C 1140.050781 448.25 1140.628906 456.085938 1141.015625 463.9375 C 1141.402344 471.785156 1141.59375 479.640625 1141.59375 487.5 Z M 1141.59375 487.5 " fill-opacity="1" fill-rule="nonzero"/></g><path fill="#c84646" d="M 905.382812 470.628906 L 858.414062 459.175781 L 768.488281 459.175781 C 765.078125 459.175781 762.304688 456.410156 762.304688 452.992188 L 762.304688 367.355469 L 740.253906 367.355469 L 740.253906 523.273438 L 942.753906 523.273438 L 942.753906 508.378906 C 942.753906 484.550781 928.453125 476.265625 905.382812 470.628906 Z M 785.289062 494.117188 L 774.882812 494.117188 C 771.464844 494.117188 768.699219 491.34375 768.699219 487.933594 C 768.699219 484.515625 771.464844 481.746094 774.882812 481.746094 L 785.289062 481.746094 C 788.703125 481.746094 791.472656 484.515625 791.472656 487.933594 C 791.472656 491.34375 788.703125 494.117188 785.289062 494.117188 Z M 785.289062 494.117188 " fill-opacity="1" fill-rule="nonzero"/><path fill="#c84646" d="M 850.476562 446.808594 L 774.675781 446.808594 L 774.675781 367.355469 L 817.199219 367.355469 C 820.128906 367.355469 823.59375 368.710938 827.054688 378.808594 Z M 850.476562 446.808594 " fill-opacity="1" fill-rule="nonzero"/><path fill="#c84646" d="M 530.554688 603.878906 C 530.550781 603.867188 530.550781 603.859375 530.550781 603.847656 C 530.519531 603.601562 530.503906 603.359375 530.503906 603.109375 C 530.503906 603.078125 530.503906 603.054688 530.507812 603.023438 L 530.507812 603.003906 C 529.007812 577.683594 507.824219 557.542969 482.003906 557.542969 C 455.207031 557.542969 433.40625 579.226562 433.40625 605.878906 C 433.40625 632.53125 455.207031 654.21875 482.003906 654.21875 C 508.796875 654.21875 530.59375 632.53125 530.59375 605.878906 C 530.59375 605.210938 530.578125 604.546875 530.554688 603.878906 Z M 482.003906 638.324219 C 464.042969 638.324219 449.433594 623.769531 449.433594 605.878906 C 449.433594 588.015625 464.042969 573.480469 482.003906 573.480469 C 499.9375 573.480469 514.523438 588.015625 514.523438 605.878906 C 514.523438 623.769531 499.9375 638.324219 482.003906 638.324219 Z M 482.003906 638.324219 " fill-opacity="1" fill-rule="nonzero"/><path fill="#c84646" d="M 840.84375 557.542969 C 815.03125 557.542969 793.855469 577.660156 792.335938 602.960938 C 792.339844 603.007812 792.339844 603.058594 792.339844 603.105469 C 792.339844 603.386719 792.320312 603.660156 792.285156 603.925781 C 792.261719 604.574219 792.25 605.226562 792.25 605.878906 C 792.25 632.53125 814.046875 654.21875 840.84375 654.21875 C 867.636719 654.21875 889.4375 632.53125 889.4375 605.878906 C 889.4375 579.226562 867.636719 557.542969 840.84375 557.542969 Z M 840.84375 638.324219 C 822.910156 638.324219 808.320312 623.769531 808.320312 605.878906 C 808.320312 588.015625 822.910156 573.480469 840.84375 573.480469 C 858.800781 573.480469 873.410156 588.015625 873.410156 605.878906 C 873.410156 623.769531 858.800781 638.324219 840.84375 638.324219 Z M 840.84375 638.324219 " fill-opacity="1" fill-rule="nonzero"/><path fill="#c84646" d="M 942.753906 535.640625 L 942.753906 589.203125 C 942.753906 594.0625 941.988281 595.375 941.660156 595.710938 C 941.382812 595.996094 940.066406 596.921875 934.789062 596.921875 L 901.140625 596.921875 C 896.78125 567.683594 871.402344 545.171875 840.84375 545.171875 C 810.28125 545.171875 784.902344 567.683594 780.539062 596.921875 L 740.253906 596.921875 L 740.253906 535.640625 Z M 942.753906 535.640625 " fill-opacity="1" fill-rule="nonzero"/><path fill="#c84646" d="M 861.042969 605.878906 C 861.042969 616.953125 851.984375 625.957031 840.84375 625.957031 C 829.726562 625.957031 820.6875 616.953125 820.6875 605.878906 C 820.6875 594.835938 829.726562 585.851562 840.84375 585.851562 C 851.984375 585.851562 861.042969 594.835938 861.042969 605.878906 Z M 861.042969 605.878906 " fill-opacity="1" fill-rule="nonzero"/><path fill="#c84646" d="M 502.15625 605.878906 C 502.15625 616.953125 493.113281 625.957031 482.003906 625.957031 C 470.863281 625.957031 461.800781 616.953125 461.800781 605.878906 C 461.800781 594.835938 470.863281 585.851562 482.003906 585.851562 C 493.113281 585.851562 502.15625 594.835938 502.15625 605.878906 Z M 502.15625 605.878906 " fill-opacity="1" fill-rule="nonzero"/><path fill="#c84646" d="M 727.886719 535.640625 L 727.886719 596.921875 L 542.300781 596.921875 C 537.941406 567.683594 512.5625 545.171875 482.003906 545.171875 C 451.441406 545.171875 426.0625 567.683594 421.699219 596.921875 L 396.09375 596.921875 C 387.21875 596.921875 380 589.753906 380 580.9375 L 380 535.640625 Z M 727.886719 535.640625 " fill-opacity="1" fill-rule="nonzero"/><path fill="#c84646" d="M 711.796875 320.78125 L 396.09375 320.78125 C 387.21875 320.78125 380 327.953125 380 336.769531 L 380 523.273438 L 727.886719 523.273438 L 727.886719 336.769531 C 727.886719 327.953125 720.667969 320.78125 711.796875 320.78125 Z M 632.027344 480.164062 C 632.027344 487.257812 626.238281 493.027344 619.128906 493.027344 L 488.757812 493.027344 C 481.675781 493.027344 475.90625 487.257812 475.90625 480.164062 L 475.90625 363.894531 C 475.90625 356.800781 481.675781 351.03125 488.757812 351.03125 L 619.128906 351.03125 C 626.238281 351.03125 632.027344 356.800781 632.027344 363.894531 Z M 632.027344 480.164062 " fill-opacity="1" fill-rule="nonzero"/><path fill="#c84646" d="M 567.847656 363.398438 L 567.847656 388.796875 L 556.878906 382.890625 C 555.046875 381.90625 552.839844 381.90625 551.007812 382.894531 L 540.085938 388.785156 L 540.085938 363.398438 Z M 567.847656 363.398438 " fill-opacity="1" fill-rule="nonzero"/><path fill="#c84646" d="M 619.128906 363.398438 L 580.214844 363.398438 L 580.214844 399.152344 C 580.214844 401.328125 579.070312 403.34375 577.199219 404.457031 C 575.332031 405.574219 573.011719 405.628906 571.097656 404.597656 L 553.945312 395.363281 L 536.839844 404.59375 C 535.925781 405.089844 534.910156 405.335938 533.902344 405.335938 C 532.804688 405.335938 531.710938 405.042969 530.734375 404.460938 C 528.867188 403.34375 527.71875 401.328125 527.71875 399.152344 L 527.71875 363.398438 L 488.757812 363.398438 C 488.535156 363.398438 488.273438 363.617188 488.273438 363.894531 L 488.273438 480.164062 C 488.273438 480.441406 488.535156 480.65625 488.757812 480.65625 L 619.128906 480.65625 C 619.410156 480.65625 619.65625 480.425781 619.65625 480.164062 L 619.65625 363.894531 C 619.65625 363.632812 619.410156 363.398438 619.128906 363.398438 Z M 545.476562 461.441406 C 545.476562 466.179688 541.636719 470.03125 536.917969 470.03125 L 508.339844 470.03125 C 503.597656 470.03125 499.734375 466.179688 499.734375 461.441406 L 499.734375 442.949219 C 499.734375 438.210938 503.597656 434.359375 508.339844 434.359375 L 536.917969 434.359375 C 541.636719 434.359375 545.476562 438.210938 545.476562 442.949219 Z M 545.476562 461.441406 " fill-opacity="1" fill-rule="nonzero"/><path fill="#c84646" d="M 512.105469 446.726562 L 533.105469 446.726562 L 533.105469 457.664062 L 512.105469 457.664062 Z M 512.105469 446.726562 " fill-opacity="1" fill-rule="nonzero"/></svg>